<svg xmlns="http://www.w3.org/2000/svg" viewBox="0 0 656 680"><defs><style>.cls-1{fill:#fff}.cls-1,.cls-4{stroke:#fff}.cls-2{opacity:.53;clip-path:url(#clip-path)}.cls-3{opacity:.56}.cls-4{fill:none;stroke-miterlimit:10}</style><clipPath id="clip-path"><path id="Rectangle_130" data-name="Rectangle 130" class="cls-1" transform="translate(-5 2501)" d="M0 0h656v680H0z"/></clipPath></defs><g id="Mask_Group_11" data-name="Mask Group 11" class="cls-2" transform="translate(5 -2501)"><g id="simbolo" class="cls-3" transform="translate(-313.516 2503.51)"><path id="Path_67" data-name="Path 67" class="cls-4" d="M1585.892 1087.267q-4.694-10.544-10.2-20.579a255.815 255.815 0 0 0-15.307-23.81 36.157 36.157 0 0 0-54.422-5.545l-96.5 90.24a48.334 48.334 0 0 0-.782 69.866 39.423 39.423 0 0 0 57.553-2.585 20.409 20.409 0 0 1 36.089 12.823 197.283 197.283 0 0 1-155.411 195.413 194.833 194.833 0 0 1-199.766-75.1 197.283 197.283 0 0 1 139.459-313.68c24.286-2.313 46.328-23.232 46.7-47.62a59.151 59.151 0 0 0-66.736-59.661 309.209 309.209 0 0 0-107.826 34.388c-133.914 71.431-195.82 233.611-143.711 376.233a307.864 307.864 0 1 0 570.554-230.35z" transform="translate(-823.816 -738.572)"/><path id="Path_68" data-name="Path 68" class="cls-4" d="M1209.523 1151.285a17.824 17.824 0 0 0 5.578 25.443 10.748 10.748 0 0 1-3.673 19.831 97.111 97.111 0 1 1 21.735-185.344 24.048 24.048 0 0 0 28.913-7.483l.816-1.123a28.13 28.13 0 0 0-11.464-42.79c-60.681-24.524-135.717-9.32-182.418 54.117a142.862 142.862 0 0 0-23.606 118.438c27.382 110.989 148.677 151.024 233.509 94.254q4.728-3.163 9.149-6.8a26.871 26.871 0 0 0-.238-42.45l-41.906-32.109a25.511 25.511 0 0 0-36.4 6.021z" transform="translate(-716.499 -637.314)"/><path id="Path_69" data-name="Path 69" class="cls-4" d="M1729.816 1160.368a350.827 350.827 0 0 1 46.736 160.548c8.367 188.167-143.1 355.892-331.1 366.981a352.151 352.151 0 0 1-372.729-343.069c-4.524-180.684 130.887-336.947 310.381-358.137a357.16 357.16 0 0 1 44.218-2.483A62.961 62.961 0 0 0 1490.287 917a64.015 64.015 0 0 0-64.083-59.7q-15.681 0-31.531 1.054a480.317 480.317 0 0 0-447.153 517.734c20.987 262.319 252.659 460.35 515.114 440.486a480.488 480.488 0 0 0 380.962-717.091 66.362 66.362 0 0 0-92.826-22.789 62.076 62.076 0 0 0-20.954 83.674z" transform="translate(-945.46 -856.81)"/></g></g></svg>