<svg xmlns="http://www.w3.org/2000/svg" viewBox="0 0 1803 286"><defs><style>.cls-1{fill:#f1f2f2}.cls-2{opacity:.4;clip-path:url(#clip-path)}.cls-3{opacity:.75;fill:url(#linear-gradient)}.cls-4,.cls-5,.cls-6,.cls-7{opacity:.59}.cls-4{clip-path:url(#clip-path-2)}.cls-5{clip-path:url(#clip-path-3)}.cls-6{clip-path:url(#clip-path-4)}.cls-7{clip-path:url(#clip-path-5)}</style><clipPath id="clip-path"><path id="Rectangle_116" data-name="Rectangle 116" class="cls-1" transform="translate(810 3957)" d="M0 0h199v166H0z"/></clipPath><linearGradient id="linear-gradient" x1=".5" x2=".5" y2="1" gradientUnits="objectBoundingBox"><stop offset="0" stop-color="#2194a7"/><stop offset="1" stop-color="#37bdcc"/></linearGradient><clipPath id="clip-path-2"><path id="Rectangle_148" data-name="Rectangle 148" class="cls-1" transform="translate(810 3950)" d="M0 0h175v121H0z"/></clipPath><clipPath id="clip-path-3"><path id="Rectangle_113" data-name="Rectangle 113" class="cls-1" transform="translate(820 3957)" d="M0 0h161v162H0z"/></clipPath><clipPath id="clip-path-4"><path id="Rectangle_114" data-name="Rectangle 114" class="cls-1" transform="translate(822 3957)" d="M0 0h155v113H0z"/></clipPath><clipPath id="clip-path-5"><path id="Rectangle_163" data-name="Rectangle 163" class="cls-1" transform="translate(821 3955)" d="M0 0h155v113H0z"/></clipPath></defs><g id="bg_bolinhas" data-name="bg bolinhas" transform="translate(-38 -3787)"><g id="Mask_Group_6" data-name="Mask Group 6" class="cls-2" transform="rotate(-180 1205 3955)"><ellipse id="Ellipse_49" data-name="Ellipse 49" class="cls-3" cx="75.755" cy="75.755" rx="75.755" ry="75.755" transform="translate(824.14 3964.615)"/></g><g id="Mask_Group_20" data-name="Mask Group 20" class="cls-4" transform="rotate(-180 672 3929)"><ellipse id="Ellipse_89" data-name="Ellipse 89" class="cls-3" cx="75.755" cy="75.755" rx="75.755" ry="75.755" transform="translate(824.14 3964.615)"/></g><g id="Mask_Group_3" data-name="Mask Group 3" class="cls-5" transform="translate(40 -52)"><ellipse id="Ellipse_46" data-name="Ellipse 46" class="cls-3" cx="75.755" cy="75.755" rx="75.755" ry="75.755" transform="translate(824.14 3964.615)"/></g><g id="Mask_Group_4" data-name="Mask Group 4" class="cls-6" transform="translate(-784 3)"><ellipse id="Ellipse_47" data-name="Ellipse 47" class="cls-3" cx="75.755" cy="75.755" rx="75.755" ry="75.755" transform="translate(824.14 3964.615)"/></g><g id="Mask_Group_26" data-name="Mask Group 26" class="cls-7" transform="translate(865 5)"><ellipse id="Ellipse_113" data-name="Ellipse 113" class="cls-3" cx="75.755" cy="75.755" rx="75.755" ry="75.755" transform="translate(824.14 3964.615)"/></g></g></svg>