<svg xmlns="http://www.w3.org/2000/svg" viewBox="0 0 80.206 104.566"><defs><style>.cls-1{fill:url(#linear-gradient)}.cls-2{fill:url(#linear-gradient-2)}.cls-3,.cls-4{fill:#4b3283}.cls-4{opacity:.25}.cls-5{fill:url(#linear-gradient-4)}</style><linearGradient id="linear-gradient" x1=".5" x2=".5" y2="1" gradientUnits="objectBoundingBox"><stop offset="0" stop-color="#1cbcb7"/><stop offset="1" stop-color="#48e9e5"/></linearGradient><linearGradient id="linear-gradient-2" x1=".5" x2=".5" y2="1" gradientUnits="objectBoundingBox"><stop offset="0" stop-color="#3d3d3d"/><stop offset="1" stop-color="#7d7d7d"/></linearGradient><linearGradient id="linear-gradient-4" x1=".5" x2=".5" y2="1" gradientUnits="objectBoundingBox"><stop offset="0" stop-color="#49317d"/><stop offset="1" stop-color="#6052c5"/></linearGradient></defs><g id="plug" transform="translate(-57.699)"><path id="Path_31" data-name="Path 31" class="cls-1" d="M63.241 390.7a6.3 6.3 0 0 1-.772-.882l-.551.551a14.847 14.847 0 0 0 0 20.734 3.363 3.363 0 0 0 2.316.993 3.173 3.173 0 0 0 2.316-.993 3.3 3.3 0 0 0 .11-4.632 8.258 8.258 0 0 1 0-11.47l.551-.551a5.539 5.539 0 0 1-.882-.772z" transform="translate(0 -307.526)"/><path id="Path_32" data-name="Path 32" class="cls-2" d="M154.247 203.7l-9.264 9.154-9.816-9.816 9.154-9.264a3.275 3.275 0 0 0-4.632-4.632l-9.154 9.154-2.1-2.206-2.978-2.868a3.276 3.276 0 1 0-4.522 4.742l.551.551 2.316 2.316 4.411 4.522 14.453 14.447 4.411 4.3 2.316 2.426.551.551a3.421 3.421 0 0 0 2.426.993 3.792 3.792 0 0 0 2.316-.882 3.3 3.3 0 0 0 .11-4.632l-2.978-3.088-2.1-2.1 9.154-9.154a3.2 3.2 0 0 0 0-4.632 3.3 3.3 0 0 0-4.625.118z" transform="translate(-49.096 -148.431)"/><path id="Path_33" data-name="Path 33" class="cls-3" d="M394.355 21.41a6.3 6.3 0 0 1 .772.882l.551-.551a14.848 14.848 0 0 0 0-20.734 3.276 3.276 0 1 0-4.742 4.521 8.258 8.258 0 0 1 0 11.47l-.551.551a5.534 5.534 0 0 1 .882.772z" transform="translate(-262.185)"/><path id="Path_34" data-name="Path 34" class="cls-1" d="M99.321 260.867l-4.411-4.3-14.448-14.559-4.411-4.522-2.426-2.316-9.044 9.043a17.632 17.632 0 0 0-.772 24.153 5.536 5.536 0 0 0 .772.882l3.088 3.088a6.3 6.3 0 0 0 .882.772 17.31 17.31 0 0 0 11.691 4.411 17.519 17.519 0 0 0 12.458-5.182l9.044-9.044z" transform="translate(-1.339 -185.526)"/><path id="Path_35" data-name="Path 35" class="cls-4" d="M274.2 67.9l-3.088-3.088a6.3 6.3 0 0 0-.882-.772 17.31 17.31 0 0 0-11.69-4.411 17.52 17.52 0 0 0-12.462 5.183l-9.044 9.044 2.316 2.426 23.375 23.378 2.426 2.316 9.044-9.044a17.632 17.632 0 0 0 .772-24.153 2.977 2.977 0 0 0-.767-.879z" transform="translate(-141.473 -47.039)"/><path id="Path_36" data-name="Path 36" class="cls-5" d="M218.823 121.536l-2.423-2.426-.441-.551a3.276 3.276 0 0 0-4.742 4.522l2.868 2.978 23.381 23.381 2.978 2.868a3.068 3.068 0 0 0 2.316.882 3.421 3.421 0 0 0 2.426-.993 3.3 3.3 0 0 0-.11-4.632l-.551-.331-2.426-2.316z" transform="translate(-120.4 -92.737)"/></g></svg>