<svg xmlns="http://www.w3.org/2000/svg" viewBox="0 0 97.69 104.69"><defs><style>.cls-1{fill:url(#linear-gradient)}.cls-2{opacity:.73;fill:url(#linear-gradient-2)}.cls-3{fill:url(#linear-gradient-5)}</style><linearGradient id="linear-gradient" x1=".5" x2=".5" y2="1" gradientUnits="objectBoundingBox"><stop offset="0" stop-color="#1cbcb7"/><stop offset="1" stop-color="#48e9e5"/></linearGradient><linearGradient id="linear-gradient-2" x1=".5" x2=".5" y2="1" gradientUnits="objectBoundingBox"><stop offset="0" stop-color="#49317d"/><stop offset="1" stop-color="#6d3ed2"/></linearGradient><linearGradient id="linear-gradient-5" x1=".5" x2=".5" y2="1" gradientUnits="objectBoundingBox"><stop offset="0" stop-color="#49317d"/><stop offset="1" stop-color="#6052c5"/></linearGradient></defs><g id="icon_reading" data-name="icon reading" transform="translate(-592 -2681)"><ellipse id="Ellipse_44" data-name="Ellipse 44" class="cls-1" cx="19.122" cy="19.746" rx="19.122" ry="19.746" transform="translate(621.723 2681)"/><path id="Path_19" data-name="Path 19" class="cls-2" d="M59.151 243.688L12.8 234.543v-53.21l46.351 9.146z" transform="translate(581.694 2542.001)"/><g id="Group_62" data-name="Group 62" transform="translate(0 7)"><path id="Union_1" data-name="Union 1" class="cls-1" d="M-235-78.427l.641-.128-.018-.08 14.757-3.326a1.914 1.914 0 0 1 2.286 1.455 1.914 1.914 0 0 1-1.454 2.286l-10.251 2.31.318 1.479 12.221-2.749a2.023 2.023 0 0 1 2.286 1.454 1.915 1.915 0 0 1-1.454 2.287l-12.245 2.755.349 1.623 11.065-2.508a1.914 1.914 0 0 1 2.286 1.455 1.914 1.914 0 0 1-1.454 2.286l-11.09 2.514.343 1.6 8.668-2.032a1.776 1.776 0 0 1 2.287 1.455 1.915 1.915 0 0 1-1.455 2.286l-13.3 3.118-.049-.22-4.737 1.05z" transform="translate(827 2820.327)"/><path id="Union_2" data-name="Union 2" class="cls-1" d="M-218.884-59.1v.012l-2.942-.666-1.7-.378v-.007l-8.724-1.976a1.859 1.859 0 0 1-1.462-2.219 1.785 1.785 0 0 1 2.3-1.413l8.673 1.964.328-1.526-11.09-2.514a1.914 1.914 0 0 1-1.455-2.286 1.915 1.915 0 0 1 2.287-1.455l11.064 2.508.349-1.623-12.245-2.755a1.915 1.915 0 0 1-1.455-2.287 2.024 2.024 0 0 1 2.287-1.454l12.219 2.749.318-1.479-10.251-2.31a1.913 1.913 0 0 1-1.454-2.286 1.914 1.914 0 0 1 2.286-1.455l14.757 3.326-.018.08.641.128v20.37z" transform="translate(903.865 2820.327)"/></g><path id="Path_20" data-name="Path 20" class="cls-3" d="M250.667 243.688l46.351-9.145v-53.21l-46.351 9.146z" transform="translate(390.178 2542.001)"/></g></svg>