<svg xmlns="http://www.w3.org/2000/svg" viewBox="0 0 334 524"><defs><style>.cls-1{fill:#fff;stroke:#707070}.cls-2{clip-path:url(#clip-path)}.cls-3{fill:url(#linear-gradient)}.cls-4{fill:url(#linear-gradient-2)}.cls-5{fill:url(#linear-gradient-3)}</style><clipPath id="clip-path"><path id="Rectangle_144" data-name="Rectangle 144" class="cls-1" transform="translate(0 2463)" d="M0 0h334v524H0z"/></clipPath><linearGradient id="linear-gradient" x1=".428" y1=".445" x2=".226" y2=".715" gradientUnits="objectBoundingBox"><stop offset="0" stop-color="#1cbcb7"/><stop offset="1" stop-color="#48e9e5"/></linearGradient><linearGradient id="linear-gradient-2" x1=".5" x2=".5" y2="1" gradientUnits="objectBoundingBox"><stop offset="0" stop-color="#49317d"/><stop offset="1" stop-color="#6052c5"/></linearGradient><linearGradient id="linear-gradient-3" x1=".5" x2=".5" y2="1" gradientUnits="objectBoundingBox"><stop offset="0" stop-color="#49317d"/><stop offset="1" stop-color="#463d87"/></linearGradient></defs><g id="forma_1" data-name="forma 1" class="cls-2" transform="translate(0 -2463)"><path id="Path_78" data-name="Path 78" class="cls-3" d="M595.589 242.636a21.229 21.229 0 0 0-30.117 0L520.406 287.7a21.23 21.23 0 0 1-30.117 0 21.23 21.23 0 0 1 0-30.117l88.811-88.811a21.3 21.3 0 0 0-30.117-30.117l-43.307 43.307a21.3 21.3 0 0 1-30.117-30.117l9.673-9.673 105.74-105.74a21.3 21.3 0 1 0-30.117-30.117L454.9 112.055l-62.653 62.653a21.229 21.229 0 0 1-30.117 0 21.229 21.229 0 0 1 0-30.117l62.652-62.653a21.3 21.3 0 0 0-30.117-30.117L291.779 154.7a21.3 21.3 0 0 1-30.117-30.117L279.249 107a21.3 21.3 0 0 0-30.117-30.117L47.764 278.249a21.3 21.3 0 0 0 30.117 30.117l29.238-29.238a21.3 21.3 0 0 1 30.117 30.117L6.215 439.827a21.3 21.3 0 0 0 30.117 30.117l74.968-74.963a21.229 21.229 0 0 1 30.117 0 21.23 21.23 0 0 1 0 30.117L66.45 500.062l-48.364 48.363a21.229 21.229 0 0 0 0 30.117 21.229 21.229 0 0 0 30.117 0l48.363-48.363 95.847-95.847a21.3 21.3 0 1 1 30.117 30.117l-17.587 17.587a21.3 21.3 0 0 0 30.117 30.117l23.083-23.082 29.238-29.238a21.361 21.361 0 0 1 25.94-3.3l1.1.879 3.3 2.638a21.365 21.365 0 0 1-.22 29.9l-52.54 52.54-39.13 39.35a21.3 21.3 0 0 0 30.117 30.117l39.13-39.35 98.485-98.486 29.458-29.458 73.425-73.424 98.485-98.485a20.676 20.676 0 0 0 .658-30.118z" transform="rotate(-167 286.023 1548.44)"/><path id="Path_82" data-name="Path 82" class="cls-4" d="M23 0A23 23 0 1 1 0 23 23 23 0 0 1 23 0z" transform="translate(150 2524)"/><path id="Path_81" data-name="Path 81" class="cls-5" d="M18.5 0h39a18.5 18.5 0 0 1 0 37h-39a18.5 18.5 0 0 1 0-37z" transform="rotate(-30 5324.703 949.52)"/></g></svg>