<?xml version="1.0" encoding="UTF-8"?><!DOCTYPE svg PUBLIC "-//W3C//DTD SVG 1.1//EN" "http://www.w3.org/Graphics/SVG/1.1/DTD/svg11.dtd"><svg xmlns="http://www.w3.org/2000/svg"><defs><style>.cls-1{fill:#f1f2f2}.cls-2{opacity:.4;clip-path:url(#clip-path)}.cls-3{opacity:.75;fill:url(#linear-gradient)}</style><clipPath id="clip-path"><path id="Rectangle_116" data-name="Rectangle 116" class="cls-1" transform="translate(824 3965)" d="M0 0h152v151H0z"/></clipPath><linearGradient id="linear-gradient" x1=".5" x2=".5" y2="1" gradientUnits="objectBoundingBox"><stop offset="0" stop-color="#2194a7"/><stop offset="1" stop-color="#37bdcc"/></linearGradient><style>.cls-1{fill:#fff}.cls-1,.cls-4{stroke:#fff}.cls-2{opacity:.53;clip-path:url(#clip-path)}.cls-3{opacity:.56}.cls-4{fill:none;stroke-miterlimit:10}</style><clipPath id="clip-path"><path id="Rectangle_130" data-name="Rectangle 130" class="cls-1" transform="translate(-5 2501)" d="M0 0h656v680H0z"/></clipPath><style>.cls-1,.cls-4{fill:none}.cls-1{stroke:#534896;stroke-width:7px}.cls-2{opacity:.52;clip-path:url(#clip-path)}.cls-3{opacity:.56}.cls-4{stroke:#4d3284;stroke-miterlimit:10;stroke-width:3px}</style><clipPath id="clip-path"><path id="Rectangle_2" data-name="Rectangle 2" class="cls-1" transform="translate(-347 2477)" d="M0 0h568v888H0z"/></clipPath><style>.cls-1{fill:#01cec7}</style><style>.cls-1{fill:#fff}</style><style>.cls-1{fill:none;stroke:#4b3283;stroke-width:2px}.cls-2{fill:#01cec7}</style><style>.cls-1{fill:#f1f2f2}.cls-2{opacity:.4;clip-path:url(#clip-path)}.cls-3{opacity:.75;fill:url(#linear-gradient)}.cls-4,.cls-5,.cls-6,.cls-7{opacity:.59}.cls-4{clip-path:url(#clip-path-2)}.cls-5{clip-path:url(#clip-path-3)}.cls-6{clip-path:url(#clip-path-4)}.cls-7{clip-path:url(#clip-path-5)}</style><clipPath id="clip-path"><path id="Rectangle_116" data-name="Rectangle 116" class="cls-1" transform="translate(810 3957)" d="M0 0h199v166H0z"/></clipPath><linearGradient id="linear-gradient" x1=".5" x2=".5" y2="1" gradientUnits="objectBoundingBox"><stop offset="0" stop-color="#2194a7"/><stop offset="1" stop-color="#37bdcc"/></linearGradient><clipPath id="clip-path-2"><path id="Rectangle_148" data-name="Rectangle 148" class="cls-1" transform="translate(810 3950)" d="M0 0h175v121H0z"/></clipPath><clipPath id="clip-path-3"><path id="Rectangle_113" data-name="Rectangle 113" class="cls-1" transform="translate(820 3957)" d="M0 0h161v162H0z"/></clipPath><clipPath id="clip-path-4"><path id="Rectangle_114" data-name="Rectangle 114" class="cls-1" transform="translate(822 3957)" d="M0 0h155v113H0z"/></clipPath><clipPath id="clip-path-5"><path id="Rectangle_163" data-name="Rectangle 163" class="cls-1" transform="translate(821 3955)" d="M0 0h155v113H0z"/></clipPath><style>.cls-1{fill:#fff;stroke:#707070}.cls-2{clip-path:url(#clip-path)}.cls-3{fill:#f8f8f8;opacity:.85}</style><clipPath id="clip-path"><path id="Rectangle_151" data-name="Rectangle 151" class="cls-1" transform="translate(0 1316)" d="M0 0h480v962H0z"/></clipPath><style>.cls-1{fill:#fff;stroke:#4b3283}.cls-2{clip-path:url(#clip-path)}.cls-3{fill:#4b3283;opacity:.81}</style><clipPath id="clip-path"><path id="Rectangle_152" data-name="Rectangle 152" class="cls-1" transform="translate(1497 1215)" d="M0 0h433v911H0z"/></clipPath><style>.cls-1{fill:url(#linear-gradient)}</style><linearGradient id="linear-gradient" x1=".5" x2=".5" y2="1" gradientUnits="objectBoundingBox"><stop offset="0" stop-color="#49317d"/><stop offset="1" stop-color="#6052c5"/></linearGradient><style>.cls-1{fill:#4b3283}</style><style>.cls-1{fill:#fff}</style><style>.cls-1{fill:url(#linear-gradient)}.cls-2{fill:url(#linear-gradient-2)}.cls-3,.cls-4{fill:#4b3283}.cls-4{opacity:.25}.cls-5{fill:url(#linear-gradient-4)}</style><linearGradient id="linear-gradient" x1=".5" x2=".5" y2="1" gradientUnits="objectBoundingBox"><stop offset="0" stop-color="#1cbcb7"/><stop offset="1" stop-color="#48e9e5"/></linearGradient><linearGradient id="linear-gradient-2" x1=".5" x2=".5" y2="1" gradientUnits="objectBoundingBox"><stop offset="0" stop-color="#3d3d3d"/><stop offset="1" stop-color="#7d7d7d"/></linearGradient><linearGradient id="linear-gradient-4" x1=".5" x2=".5" y2="1" gradientUnits="objectBoundingBox"><stop offset="0" stop-color="#49317d"/><stop offset="1" stop-color="#6052c5"/></linearGradient><style>.cls-1{fill:url(#linear-gradient)}.cls-2{opacity:.73;fill:url(#linear-gradient-2)}.cls-3{fill:url(#linear-gradient-5)}</style><linearGradient id="linear-gradient" x1=".5" x2=".5" y2="1" gradientUnits="objectBoundingBox"><stop offset="0" stop-color="#1cbcb7"/><stop offset="1" stop-color="#48e9e5"/></linearGradient><linearGradient id="linear-gradient-2" x1=".5" x2=".5" y2="1" gradientUnits="objectBoundingBox"><stop offset="0" stop-color="#49317d"/><stop offset="1" stop-color="#6d3ed2"/></linearGradient><linearGradient id="linear-gradient-5" x1=".5" x2=".5" y2="1" gradientUnits="objectBoundingBox"><stop offset="0" stop-color="#49317d"/><stop offset="1" stop-color="#6052c5"/></linearGradient><style>.cls-1{fill:#fff;stroke:#707070}.cls-2{clip-path:url(#clip-path)}.cls-3{fill:url(#linear-gradient)}.cls-4{fill:url(#linear-gradient-2)}.cls-5{fill:url(#linear-gradient-3)}</style><clipPath id="clip-path"><path id="Rectangle_144" data-name="Rectangle 144" class="cls-1" transform="translate(0 2463)" d="M0 0h334v524H0z"/></clipPath><linearGradient id="linear-gradient" x1=".428" y1=".445" x2=".226" y2=".715" gradientUnits="objectBoundingBox"><stop offset="0" stop-color="#1cbcb7"/><stop offset="1" stop-color="#48e9e5"/></linearGradient><linearGradient id="linear-gradient-2" x1=".5" x2=".5" y2="1" gradientUnits="objectBoundingBox"><stop offset="0" stop-color="#49317d"/><stop offset="1" stop-color="#6052c5"/></linearGradient><linearGradient id="linear-gradient-3" x1=".5" x2=".5" y2="1" gradientUnits="objectBoundingBox"><stop offset="0" stop-color="#49317d"/><stop offset="1" stop-color="#463d87"/></linearGradient><style>.cls-1{fill:#fff;stroke:#707070}.cls-2{clip-path:url(#clip-path)}.cls-3{fill:url(#linear-gradient)}.cls-4{fill:url(#linear-gradient-2)}.cls-5{fill:url(#linear-gradient-3)}</style><clipPath id="clip-path"><path id="Rectangle_150" data-name="Rectangle 150" class="cls-1" transform="translate(1618 2420)" d="M0 0h302v484H0z"/></clipPath><linearGradient id="linear-gradient" x1=".428" y1=".445" x2=".226" y2=".715" gradientUnits="objectBoundingBox"><stop offset="0" stop-color="#49317d"/><stop offset="1" stop-color="#5549ae"/></linearGradient><linearGradient id="linear-gradient-2" x1=".5" x2=".5" y2="1" gradientUnits="objectBoundingBox"><stop offset="0" stop-color="#1cbcb7"/><stop offset="1" stop-color="#48e9e5"/></linearGradient><linearGradient id="linear-gradient-3" x1=".5" x2=".5" y2="1" gradientUnits="objectBoundingBox"><stop offset="0" stop-color="#3e4d8f"/><stop offset="1" stop-color="#2f5e95"/></linearGradient><style>.cls-1{fill:#8a79b3}.cls-2{fill:#4b3283}.cls-3{fill:#01cec7}.cls-4{fill:#18a7a2}.cls-5{fill:url(#linear-gradient)}.cls-6{fill:#ad9fce;opacity:.65}.cls-7{fill:#4e4e4e}.cls-8{fill:#219f9b}</style><linearGradient id="linear-gradient" x1=".5" x2=".5" y2="1" gradientUnits="objectBoundingBox"><stop offset="0" stop-color="#49317d"/><stop offset="1" stop-color="#6052c5"/></linearGradient></defs><symbol id="arrow" viewBox="0 0 492 492"><path d="M198.608 246.104L382.664 62.04c5.068-5.056 7.856-11.816 7.856-19.024 0-7.212-2.788-13.968-7.856-19.032l-16.128-16.12C361.476 2.792 354.712 0 347.504 0s-13.964 2.792-19.028 7.864L109.328 227.008c-5.084 5.08-7.868 11.868-7.848 19.084-.02 7.248 2.76 14.028 7.848 19.112l218.944 218.932c5.064 5.072 11.82 7.864 19.032 7.864 7.208 0 13.964-2.792 19.032-7.864l16.124-16.12c10.492-10.492 10.492-27.572 0-38.06L198.608 246.104z" fill="#FFF"/></symbol><symbol id="ball" viewBox="0 0 152 151"><g id="Mask_Group_6" data-name="Mask Group 6" class="cls-2" transform="rotate(-180 488 2058)"><ellipse id="Ellipse_49" data-name="Ellipse 49" class="cls-3" cx="75.755" cy="75.755" rx="75.755" ry="75.755" transform="translate(824.14 3964.615)"/></g></symbol><symbol id="brand" viewBox="0 0 656 680"><g id="Mask_Group_11" data-name="Mask Group 11" class="cls-2" transform="translate(5 -2501)"><g id="simbolo" class="cls-3" transform="translate(-313.516 2503.51)"><path id="Path_67" data-name="Path 67" class="cls-4" d="M1585.892 1087.267q-4.694-10.544-10.2-20.579a255.815 255.815 0 0 0-15.307-23.81 36.157 36.157 0 0 0-54.422-5.545l-96.5 90.24a48.334 48.334 0 0 0-.782 69.866 39.423 39.423 0 0 0 57.553-2.585 20.409 20.409 0 0 1 36.089 12.823 197.283 197.283 0 0 1-155.411 195.413 194.833 194.833 0 0 1-199.766-75.1 197.283 197.283 0 0 1 139.459-313.68c24.286-2.313 46.328-23.232 46.7-47.62a59.151 59.151 0 0 0-66.736-59.661 309.209 309.209 0 0 0-107.826 34.388c-133.914 71.431-195.82 233.611-143.711 376.233a307.864 307.864 0 1 0 570.554-230.35z" transform="translate(-823.816 -738.572)"/><path id="Path_68" data-name="Path 68" class="cls-4" d="M1209.523 1151.285a17.824 17.824 0 0 0 5.578 25.443 10.748 10.748 0 0 1-3.673 19.831 97.111 97.111 0 1 1 21.735-185.344 24.048 24.048 0 0 0 28.913-7.483l.816-1.123a28.13 28.13 0 0 0-11.464-42.79c-60.681-24.524-135.717-9.32-182.418 54.117a142.862 142.862 0 0 0-23.606 118.438c27.382 110.989 148.677 151.024 233.509 94.254q4.728-3.163 9.149-6.8a26.871 26.871 0 0 0-.238-42.45l-41.906-32.109a25.511 25.511 0 0 0-36.4 6.021z" transform="translate(-716.499 -637.314)"/><path id="Path_69" data-name="Path 69" class="cls-4" d="M1729.816 1160.368a350.827 350.827 0 0 1 46.736 160.548c8.367 188.167-143.1 355.892-331.1 366.981a352.151 352.151 0 0 1-372.729-343.069c-4.524-180.684 130.887-336.947 310.381-358.137a357.16 357.16 0 0 1 44.218-2.483A62.961 62.961 0 0 0 1490.287 917a64.015 64.015 0 0 0-64.083-59.7q-15.681 0-31.531 1.054a480.317 480.317 0 0 0-447.153 517.734c20.987 262.319 252.659 460.35 515.114 440.486a480.488 480.488 0 0 0 380.962-717.091 66.362 66.362 0 0 0-92.826-22.789 62.076 62.076 0 0 0-20.954 83.674z" transform="translate(-945.46 -856.81)"/></g></g></symbol><symbol id="brandtop" viewBox="0 0 568 888"><g id="coggite" class="cls-2" transform="translate(347 -2477)"><g id="simbolo" class="cls-3" transform="translate(-305.516 2491.51)"><path id="Path_1" data-name="Path 1" class="cls-4" d="M1585.892 1087.267q-4.694-10.544-10.2-20.579a255.815 255.815 0 0 0-15.307-23.81 36.157 36.157 0 0 0-54.422-5.545l-96.5 90.24a48.334 48.334 0 0 0-.782 69.866 39.423 39.423 0 0 0 57.553-2.585 20.409 20.409 0 0 1 36.089 12.823 197.283 197.283 0 0 1-155.411 195.413 194.833 194.833 0 0 1-199.766-75.1 197.283 197.283 0 0 1 139.459-313.68c24.286-2.313 46.328-23.232 46.7-47.62a59.151 59.151 0 0 0-66.736-59.661 309.209 309.209 0 0 0-107.826 34.388c-133.914 71.431-195.82 233.611-143.711 376.233a307.864 307.864 0 1 0 570.554-230.35z" transform="translate(-823.816 -738.572)"/><path id="Path_2" data-name="Path 2" class="cls-4" d="M1209.523 1151.285a17.824 17.824 0 0 0 5.578 25.443 10.748 10.748 0 0 1-3.673 19.831 97.111 97.111 0 1 1 21.735-185.344 24.048 24.048 0 0 0 28.913-7.483l.816-1.123a28.13 28.13 0 0 0-11.464-42.79c-60.681-24.524-135.717-9.32-182.418 54.117a142.862 142.862 0 0 0-23.606 118.438c27.382 110.989 148.677 151.024 233.509 94.254q4.728-3.163 9.149-6.8a26.871 26.871 0 0 0-.238-42.45l-41.906-32.109a25.511 25.511 0 0 0-36.4 6.021z" transform="translate(-716.499 -637.314)"/><path id="Path_3" data-name="Path 3" class="cls-4" d="M1729.816 1160.368a350.827 350.827 0 0 1 46.736 160.548c8.367 188.167-143.1 355.892-331.1 366.981a352.151 352.151 0 0 1-372.729-343.069c-4.524-180.684 130.887-336.947 310.381-358.137a357.16 357.16 0 0 1 44.218-2.483A62.961 62.961 0 0 0 1490.287 917a64.015 64.015 0 0 0-64.083-59.7q-15.681 0-31.531 1.054a480.317 480.317 0 0 0-447.153 517.734c20.987 262.319 252.659 460.35 515.114 440.486a480.488 480.488 0 0 0 380.962-717.091 66.362 66.362 0 0 0-92.826-22.789 62.076 62.076 0 0 0-20.954 83.674z" transform="translate(-945.46 -856.81)"/></g></g></symbol><symbol id="bubles" viewBox="0 0 133.45 127.6"><g id="XMLID_2_" transform="translate(.025)"><g id="XMLID_3_"><g id="XMLID_33_"><g id="XMLID_53_"><g id="XMLID_56_"><g id="Group_814" data-name="Group 814"><path id="Path_773" data-name="Path 773" class="cls-1" d="M41.8 6c3.9 0 3.9-6 0-6s-3.9 6 0 6z"/></g></g><g id="XMLID_55_"><g id="Group_815" data-name="Group 815"><path id="Path_774" data-name="Path 774" class="cls-1" d="M29 21.5c3.9 0 3.9-6 0-6s-3.9 6 0 6z"/></g></g><g id="XMLID_54_"><g id="Group_816" data-name="Group 816"><path id="Path_775" data-name="Path 775" class="cls-1" d="M54.5 21.5c3.9 0 3.9-6 0-6-3.8 0-3.8 6 0 6z"/></g></g></g><g id="XMLID_47_"><g id="XMLID_52_"><g id="Group_817" data-name="Group 817"><path id="Path_776" data-name="Path 776" class="cls-1" d="M15.7 36.4c3.9 0 3.9-6 0-6s-3.9 6 0 6z"/></g></g><g id="XMLID_51_"><g id="Group_818" data-name="Group 818"><path id="Path_777" data-name="Path 777" class="cls-1" d="M41.3 36.4c3.9 0 3.9-6 0-6s-3.9 6 0 6z"/></g></g><g id="XMLID_50_"><g id="Group_819" data-name="Group 819"><path id="Path_778" data-name="Path 778" class="cls-1" d="M2.9 51.9c3.9 0 3.9-6 0-6s-3.9 6 0 6z"/></g></g><g id="XMLID_49_"><g id="Group_820" data-name="Group 820"><path id="Path_779" data-name="Path 779" class="cls-1" d="M28.5 51.9c3.9 0 3.9-6 0-6s-3.9 6 0 6z"/></g></g><g id="XMLID_48_"><g id="Group_821" data-name="Group 821"><path id="Path_780" data-name="Path 780" class="cls-1" d="M54 51.9c3.9 0 3.9-6 0-6-3.8 0-3.8 6 0 6z"/></g></g></g><g id="XMLID_41_"><g id="XMLID_46_"><g id="Group_822" data-name="Group 822"><path id="Path_781" data-name="Path 781" class="cls-1" d="M16.2 66.8c3.9 0 3.9-6 0-6s-3.9 6 0 6z"/></g></g><g id="XMLID_45_"><g id="Group_823" data-name="Group 823"><path id="Path_782" data-name="Path 782" class="cls-1" d="M41.8 66.8c3.9 0 3.9-6 0-6s-3.9 6 0 6z"/></g></g><g id="XMLID_44_"><g id="Group_824" data-name="Group 824"><path id="Path_783" data-name="Path 783" class="cls-1" d="M3.4 82.3c3.9 0 3.9-6 0-6s-3.9 6 0 6z"/></g></g><g id="XMLID_43_"><g id="Group_825" data-name="Group 825"><path id="Path_784" data-name="Path 784" class="cls-1" d="M29 82.3c3.9 0 3.9-6 0-6s-3.9 6 0 6z"/></g></g><g id="XMLID_42_"><g id="Group_826" data-name="Group 826"><path id="Path_785" data-name="Path 785" class="cls-1" d="M54.5 82.3c3.9 0 3.9-6 0-6-3.8 0-3.8 6 0 6z"/></g></g></g><g id="XMLID_36_"><g id="XMLID_40_"><g id="Group_827" data-name="Group 827"><path id="Path_786" data-name="Path 786" class="cls-1" d="M16.2 97.2c3.9 0 3.9-6 0-6s-3.9 6 0 6z"/></g></g><g id="XMLID_39_"><g id="Group_828" data-name="Group 828"><path id="Path_787" data-name="Path 787" class="cls-1" d="M41.8 97.2c3.9 0 3.9-6 0-6s-3.9 6 0 6z"/></g></g><g id="XMLID_38_"><g id="Group_829" data-name="Group 829"><path id="Path_788" data-name="Path 788" class="cls-1" d="M29 112.7c3.9 0 3.9-6 0-6s-3.9 6 0 6z"/></g></g><g id="XMLID_37_"><g id="Group_830" data-name="Group 830"><path id="Path_789" data-name="Path 789" class="cls-1" d="M54.5 112.7c3.9 0 3.9-6 0-6-3.8 0-3.8 6 0 6z"/></g></g></g><g id="XMLID_34_"><g id="XMLID_35_"><g id="Group_831" data-name="Group 831"><path id="Path_790" data-name="Path 790" class="cls-1" d="M41.8 127.6c3.9 0 3.9-6 0-6s-3.9 6 0 6z"/></g></g></g></g><g id="XMLID_4_"><g id="XMLID_28_"><g id="XMLID_32_"><g id="Group_832" data-name="Group 832"><path id="Path_791" data-name="Path 791" class="cls-1" d="M66.6 6c3.9 0 3.9-6 0-6s-3.9 6 0 6z"/></g></g><g id="XMLID_31_"><g id="Group_833" data-name="Group 833"><path id="Path_792" data-name="Path 792" class="cls-1" d="M92.2 6c3.9 0 3.9-6 0-6s-3.9 6 0 6z"/></g></g><g id="XMLID_30_"><g id="Group_834" data-name="Group 834"><path id="Path_793" data-name="Path 793" class="cls-1" d="M79.4 21.5c3.9 0 3.9-6 0-6s-3.9 6 0 6z"/></g></g><g id="XMLID_29_"><g id="Group_835" data-name="Group 835"><path id="Path_794" data-name="Path 794" class="cls-1" d="M105 21.5c3.9 0 3.9-6 0-6s-3.9 6 0 6z"/></g></g></g><g id="XMLID_21_"><g id="XMLID_27_"><g id="Group_836" data-name="Group 836"><path id="Path_795" data-name="Path 795" class="cls-1" d="M66.1 36.4c3.9 0 3.9-6 0-6s-3.9 6 0 6z"/></g></g><g id="XMLID_26_"><g id="Group_837" data-name="Group 837"><path id="Path_796" data-name="Path 796" class="cls-1" d="M91.7 36.4c3.9 0 3.9-6 0-6s-3.9 6 0 6z"/></g></g><g id="XMLID_25_"><g id="Group_838" data-name="Group 838"><path id="Path_797" data-name="Path 797" class="cls-1" d="M117.3 36.4c3.9 0 3.9-6 0-6s-3.9 6 0 6z"/></g></g><g id="XMLID_24_"><g id="Group_839" data-name="Group 839"><path id="Path_798" data-name="Path 798" class="cls-1" d="M78.9 51.9c3.9 0 3.9-6 0-6s-3.9 6 0 6z"/></g></g><g id="XMLID_23_"><g id="Group_840" data-name="Group 840"><path id="Path_799" data-name="Path 799" class="cls-1" d="M104.5 51.9c3.9 0 3.9-6 0-6s-3.9 6 0 6z"/></g></g><g id="XMLID_22_"><g id="Group_841" data-name="Group 841"><path id="Path_800" data-name="Path 800" class="cls-1" d="M130 51.9c3.9 0 3.9-6 0-6-3.8 0-3.8 6 0 6z"/></g></g></g><g id="XMLID_14_"><g id="XMLID_20_"><g id="Group_842" data-name="Group 842"><path id="Path_801" data-name="Path 801" class="cls-1" d="M66.6 66.8c3.9 0 3.9-6 0-6s-3.9 6 0 6z"/></g></g><g id="XMLID_19_"><g id="Group_843" data-name="Group 843"><path id="Path_802" data-name="Path 802" class="cls-1" d="M92.2 66.8c3.9 0 3.9-6 0-6s-3.9 6 0 6z"/></g></g><g id="XMLID_18_"><g id="Group_844" data-name="Group 844"><path id="Path_803" data-name="Path 803" class="cls-1" d="M117.8 66.8c3.9 0 3.9-6 0-6s-3.9 6 0 6z"/></g></g><g id="XMLID_17_"><g id="Group_845" data-name="Group 845"><path id="Path_804" data-name="Path 804" class="cls-1" d="M79.4 82.3c3.9 0 3.9-6 0-6s-3.9 6 0 6z"/></g></g><g id="XMLID_16_"><g id="Group_846" data-name="Group 846"><path id="Path_805" data-name="Path 805" class="cls-1" d="M105 82.3c3.9 0 3.9-6 0-6s-3.9 6 0 6z"/></g></g><g id="XMLID_15_"><g id="Group_847" data-name="Group 847"><path id="Path_806" data-name="Path 806" class="cls-1" d="M130.5 82.3c3.9 0 3.9-6 0-6-3.8 0-3.8 6 0 6z"/></g></g></g><g id="XMLID_8_"><g id="XMLID_13_"><g id="Group_848" data-name="Group 848"><path id="Path_807" data-name="Path 807" class="cls-1" d="M66.6 97.2c3.9 0 3.9-6 0-6s-3.9 6 0 6z"/></g></g><g id="XMLID_12_"><g id="Group_849" data-name="Group 849"><path id="Path_808" data-name="Path 808" class="cls-1" d="M92.2 97.2c3.9 0 3.9-6 0-6s-3.9 6 0 6z"/></g></g><g id="XMLID_11_"><g id="Group_850" data-name="Group 850"><path id="Path_809" data-name="Path 809" class="cls-1" d="M117.8 97.2c3.9 0 3.9-6 0-6s-3.9 6 0 6z"/></g></g><g id="XMLID_10_"><g id="Group_851" data-name="Group 851"><path id="Path_810" data-name="Path 810" class="cls-1" d="M79.4 112.7c3.9 0 3.9-6 0-6s-3.9 6 0 6z"/></g></g><g id="XMLID_9_"><g id="Group_852" data-name="Group 852"><path id="Path_811" data-name="Path 811" class="cls-1" d="M105 112.7c3.9 0 3.9-6 0-6s-3.9 6 0 6z"/></g></g></g><g id="XMLID_5_"><g id="XMLID_7_"><g id="Group_853" data-name="Group 853"><path id="Path_812" data-name="Path 812" class="cls-1" d="M66.6 127.6c3.9 0 3.9-6 0-6s-3.9 6 0 6z"/></g></g><g id="XMLID_6_"><g id="Group_854" data-name="Group 854"><path id="Path_813" data-name="Path 813" class="cls-1" d="M92.2 127.6c3.9 0 3.9-6 0-6s-3.9 6 0 6z"/></g></g></g></g></g></g></symbol><symbol id="cancel" viewBox="0 0 21.9 21.9"><path d="M14.1 11.3c-.2-.2-.2-.5 0-.7l7.5-7.5c.2-.2.3-.5.3-.7s-.1-.5-.3-.7L20.2.3c-.2-.2-.5-.3-.7-.3-.3 0-.5.1-.7.3l-7.5 7.5c-.2.2-.5.2-.7 0L3.1.3C2.9.1 2.6 0 2.4 0s-.5.1-.7.3L.3 1.7c-.2.2-.3.5-.3.7s.1.5.3.7l7.5 7.5c.2.2.2.5 0 .7L.3 18.8c-.2.2-.3.5-.3.7s.1.5.3.7l1.4 1.4c.2.2.5.3.7.3s.5-.1.7-.3l7.5-7.5c.2-.2.5-.2.7 0l7.5 7.5c.2.2.5.3.7.3s.5-.1.7-.3l1.4-1.4c.2-.2.3-.5.3-.7s-.1-.5-.3-.7l-7.5-7.5z" fill="#D80027"/></symbol><symbol id="chat" viewBox="0 0 32.497 32.5"><g id="chat" transform="translate(-.019)"><g id="Group_70" data-name="Group 70" transform="translate(.019)"><path id="Path_63" data-name="Path 63" class="cls-1" d="M27.748 4.762a16.246 16.246 0 0 0-24 21.85 6.217 6.217 0 0 1-2.6 2.886 1.524 1.524 0 0 0 .44 2.872 8.4 8.4 0 0 0 1.285.1 9.7 9.7 0 0 0 5.717-1.9A16.244 16.244 0 0 0 27.748 4.762zm-1.313 21.664a14.391 14.391 0 0 1-17.466 2.24.924.924 0 0 0-1.127.144.305.305 0 0 0-.076.055 7.933 7.933 0 0 1-4.9 1.745h-.005a9.1 9.1 0 0 0 2.79-3.7.949.949 0 0 0 .048-.6.965.965 0 0 0-.227-.522 14.392 14.392 0 1 1 20.964.639z" transform="translate(-.019)"/><circle id="Ellipse_54" data-name="Ellipse 54" class="cls-1" cx="1.141" cy="1.141" r="1.141" transform="translate(15.1 15.109)"/><circle id="Ellipse_55" data-name="Ellipse 55" class="cls-1" cx="1.141" cy="1.141" r="1.141" transform="translate(20.982 15.109)"/><circle id="Ellipse_56" data-name="Ellipse 56" class="cls-1" cx="1.141" cy="1.141" r="1.141" transform="translate(9.218 15.109)"/></g></g></symbol><symbol id="circleleft" viewBox="0 0 329.7 329.6"><style>.st0{fill:none;stroke:#01cec7;stroke-width:2}.st1{fill:#463d87}</style><g id="Group_88" transform="translate(49 39)"><g transform="translate(-49 -39)"><circle id="Ellipse_18-2" class="st0" cx="164.8" cy="164.8" r="163.7"/></g><circle id="Ellipse_19" class="st1" cx="-25.4" cy="209.1" r="8.8"/><circle id="Ellipse_43" class="st1" cx="216.8" cy="-2.4" r="8.8"/></g></symbol><symbol id="circleright" viewBox="0 0 329.758 327.26"><g id="foto_redonda_1" data-name="foto redonda 1" transform="translate(-985 -1341)"><g id="Group_58" data-name="Group 58" transform="translate(988.497 1342)"><circle id="Ellipse_12" data-name="Ellipse 12" class="cls-1" cx="162.63" cy="162.63" r="162.63"/><circle id="Ellipse_41" data-name="Ellipse 41" class="cls-2" cx="8.744" cy="8.744" r="8.744" transform="translate(268.136 38.472)"/></g><circle id="Ellipse_42" data-name="Ellipse 42" class="cls-2" cx="8.744" cy="8.744" r="8.744" transform="translate(985 1532.027)"/></g></symbol><symbol id="circles" viewBox="0 0 1803 286"><g id="bg_bolinhas" data-name="bg bolinhas" transform="translate(-38 -3787)"><g id="Mask_Group_6" data-name="Mask Group 6" class="cls-2" transform="rotate(-180 1205 3955)"><ellipse id="Ellipse_49" data-name="Ellipse 49" class="cls-3" cx="75.755" cy="75.755" rx="75.755" ry="75.755" transform="translate(824.14 3964.615)"/></g><g id="Mask_Group_20" data-name="Mask Group 20" class="cls-4" transform="rotate(-180 672 3929)"><ellipse id="Ellipse_89" data-name="Ellipse 89" class="cls-3" cx="75.755" cy="75.755" rx="75.755" ry="75.755" transform="translate(824.14 3964.615)"/></g><g id="Mask_Group_3" data-name="Mask Group 3" class="cls-5" transform="translate(40 -52)"><ellipse id="Ellipse_46" data-name="Ellipse 46" class="cls-3" cx="75.755" cy="75.755" rx="75.755" ry="75.755" transform="translate(824.14 3964.615)"/></g><g id="Mask_Group_4" data-name="Mask Group 4" class="cls-6" transform="translate(-784 3)"><ellipse id="Ellipse_47" data-name="Ellipse 47" class="cls-3" cx="75.755" cy="75.755" rx="75.755" ry="75.755" transform="translate(824.14 3964.615)"/></g><g id="Mask_Group_26" data-name="Mask Group 26" class="cls-7" transform="translate(865 5)"><ellipse id="Ellipse_113" data-name="Ellipse 113" class="cls-3" cx="75.755" cy="75.755" rx="75.755" ry="75.755" transform="translate(824.14 3964.615)"/></g></g></symbol><symbol id="close" viewBox="0 0 348.333 348.334"><path d="M336.559 68.611L231.016 174.165l105.543 105.549c15.699 15.705 15.699 41.145 0 56.85-7.844 7.844-18.128 11.769-28.407 11.769-10.296 0-20.581-3.919-28.419-11.769L174.167 231.003 68.609 336.563c-7.843 7.844-18.128 11.769-28.416 11.769-10.285 0-20.563-3.919-28.413-11.769-15.699-15.698-15.699-41.139 0-56.85l105.54-105.549L11.774 68.611c-15.699-15.699-15.699-41.145 0-56.844 15.696-15.687 41.127-15.687 56.829 0l105.563 105.554L279.721 11.767c15.705-15.687 41.139-15.687 56.832 0 15.705 15.699 15.705 41.145.006 56.844z" fill="#FFF"/></symbol><symbol id="firstleft" viewBox="0 0 480 962"><g id="Mask_Group_21" data-name="Mask Group 21" class="cls-2" transform="translate(0 -1316)"><path id="Path_15" data-name="Path 15" class="cls-3" d="M65.909 1068.99s239.743 330.05 510.741 593.048-357.59 361.269-492.793 363.828S-20.9 1008.558-20.9 1008.558z" transform="rotate(8 -1760.636 742.481)"/></g></symbol><symbol id="firstright" viewBox="0 0 433 911"><g id="from" class="cls-2" transform="translate(-1497 -1215)"><path id="Path_12" data-name="Path 12" class="cls-3" d="M65.909 1068.99s239.743 330.05 510.741 593.048-357.59 361.269-492.793 363.828S-20.9 1008.558-20.9 1008.558z" transform="scale(-1) rotate(10.02 17549.015 -12019.521)"/></g></symbol><symbol id="grad" viewBox="0 0 149.344 145.087"><path id="XMLID_57_" class="cls-1" d="M133.2 38.9a65 65 0 1 1-82.7 100.3z" transform="rotate(65 107.974 61.743)"/></symbol><symbol id="half" viewBox="0 0 80.125 73.824"><path id="Subtraction_6" data-name="Subtraction 6" class="cls-1" d="M-202.445-38.441H-221a36.328 36.328 0 0 1 2.873-14.23 36.431 36.431 0 0 1 7.835-11.621 36.432 36.432 0 0 1 11.621-7.835A36.329 36.329 0 0 1-184.441-75a36.329 36.329 0 0 1 14.23 2.873 36.432 36.432 0 0 1 11.621 7.835 36.431 36.431 0 0 1 7.835 11.621 36.331 36.331 0 0 1 2.873 14.23h-18.009a18.354 18.354 0 0 0-18.277-18.007 18.354 18.354 0 0 0-18.277 18.007z" transform="rotate(142 -88.31 28.73)"/></symbol><symbol id="logo" viewBox="0 0 764.7 235.4"><style>.st0{fill:#363636}.st1{fill:url(#SVGID_1_)}.st2{fill:url(#SVGID_2_)}.st3{fill:url(#SVGID_3_)}</style><circle class="st0" cx="591.3" cy="23.4" r="10.3"/><path class="st0" d="M257.1 91.9c3.1 0 5 3.2 3.6 5.9-1.2 2.3-2.6 4.5-4.2 6.6-2.9 3.8-6.2 7.1-10.1 9.8-3.9 2.7-8.1 4.9-12.7 6.4s-9.4 2.3-14.3 2.3c-6.2 0-12.1-1.2-17.6-3.6s-10.4-5.6-14.6-9.7c-4.2-4.1-7.5-8.9-10-14.5s-3.7-11.6-3.7-17.9c0-6.2 1.2-12.1 3.7-17.7s5.8-10.5 10-14.8 9.1-7.6 14.7-10.2c5.6-2.5 11.6-3.8 18-3.8 5 0 9.8.8 14.5 2.4 4.6 1.6 8.8 3.8 12.5 6.6s7.1 6.2 10 10.1c1.6 2.2 3.1 4.5 4.3 6.8 1.4 2.7-.5 6-3.6 6h-8.9c-1.4 0-2.7-.7-3.5-2-2.5-4-5.8-7.2-9.8-9.6-4.7-2.8-9.9-4.2-15.5-4.2-4 0-7.8.8-11.5 2.4-3.7 1.6-6.9 3.7-9.7 6.4s-5.1 5.9-6.7 9.6c-1.7 3.7-2.5 7.7-2.5 11.9 0 3.9.8 7.6 2.3 11.2s3.6 6.8 6.4 9.5c2.7 2.7 5.9 4.9 9.5 6.6 3.6 1.6 7.5 2.5 11.7 2.5 5.3 0 10.3-1.4 15.2-4.1 4.2-2.4 7.6-5.5 10.2-9.2.8-1.1 2-1.7 3.3-1.7h9zM318.2 123.4c-6.4 0-12.5-1.2-18.1-3.7-5.7-2.5-10.6-5.8-14.9-10s-7.6-9.1-10.1-14.7-3.7-11.6-3.7-17.9c0-6.4 1.2-12.4 3.7-18s5.8-10.5 10.1-14.7c4.3-4.2 9.2-7.5 14.9-10 5.7-2.5 11.7-3.7 18.1-3.7 6.3 0 12.3 1.2 18 3.7s10.6 5.8 14.8 10c4.2 4.2 7.5 9.1 10 14.7s3.7 11.6 3.7 18c0 6.3-1.2 12.3-3.7 17.9s-5.8 10.5-10 14.7-9.1 7.5-14.8 10c-5.7 2.5-11.7 3.7-18 3.7zm0-76.2c-4.2 0-8.2.8-11.9 2.4-3.7 1.6-7 3.7-9.7 6.4s-4.9 5.8-6.6 9.5c-1.6 3.6-2.5 7.5-2.5 11.7s.8 8.1 2.5 11.7c1.6 3.6 3.8 6.8 6.6 9.5 2.7 2.7 6 4.9 9.7 6.5s7.7 2.4 11.9 2.4 8.1-.8 11.8-2.4c3.7-1.6 6.9-3.7 9.6-6.5 2.7-2.7 4.9-5.9 6.5-9.5s2.4-7.5 2.4-11.7-.8-8.1-2.4-11.7c-1.6-3.6-3.7-6.8-6.5-9.5-2.7-2.7-6-4.8-9.6-6.4-3.7-1.6-7.6-2.4-11.8-2.4zM752.8 82.2c4.6-.1 8.8-3.3 9.8-7.8 1-4.3.6-10-1.2-15.2-2.2-5.8-5.8-10.5-10-14.7-4.2-4.2-9.2-7.5-14.8-10s-11.7-3.7-18-3.7c-6.5 0-12.5 1.2-18.2 3.7-5.7 2.5-10.7 5.8-14.9 10-4.3 4.2-7.6 9.2-10.1 14.7-2.5 5.7-3.7 11.6-3.7 18.1 0 6.3 1.2 12.3 3.7 17.9 2.5 5.7 5.9 10.5 10.1 14.7 4.3 4.2 9.3 7.5 14.9 10 5.7 2.5 11.7 3.7 18.2 3.7 6.3 0 12.4-1.2 18-3.7s10.6-5.8 14.8-10c4.2-4.2 7.5-9.2 10-14.7.5-1.2-.1-2.3-1.8-2.7 0 0-12.8-2.7-16.3 2.1-1 1.4-2.1 2.8-3.3 4-2.8 2.8-6 4.9-9.7 6.5-3.7 1.5-7.6 2.4-11.8 2.4s-8.2-.8-11.9-2.4-7-3.7-9.8-6.5-4.9-6-6.6-9.6c-.9-2-1.5-4-2-6.2.7.2 1.4.3 2.3.3l62.3-.9zm-62.5-17c1.6-3.5 3.7-6.6 6.4-9.3 2.8-2.7 6-4.8 9.8-6.4 3.7-1.5 7.7-2.4 11.9-2.4s8.1.8 11.8 2.4c3.7 1.5 6.9 3.7 9.7 6.4 2.5 2.4 5 6.1 6.6 9.3M667.2 107.5c-.4-.7-1.2-1-2-.8-3.6 1.1-13.2 3.9-17-2.2-.8-1.3-1.3-1.8-1.3-4.4v-93c0-2.8-2.3-5.1-5.1-5.1h-8.9c-2.3 0-4.1 1.8-4.1 4.1v28c0 2.3-1.8 4.1-4.1 4.1H613c-2.3 0-4.1 1.8-4.1 4.1v8c0 2.3 1.8 4.1 4.1 4.1h14.2c.9 0 1.7.7 1.7 1.7 0 0 .6 35.3.6 47.8 0 13.1 11.1 17.8 17 19.2 3.5.9 7.1 1.2 10.6.8 2.9-.3 6.5-.9 9.8-2.3 3.5-1.5 5-5.7 3.1-9l-2.8-5.1zM597.4 123.7h-12.1c-1.6 0-2.9-1.3-2.9-2.9V43.4c0-1.6 1.3-2.9 2.9-2.9h12.1c1.6 0 2.9 1.3 2.9 2.9v77.3c0 1.7-1.3 3-2.9 3zM461.5 40.8h-8.6c-1.5 0-2.8 1-3.3 2.4-3.8-3.6-8.3-6.6-13.3-8.8-5.5-2.5-11.4-3.7-17.6-3.7-6.3 0-12.2 1.2-17.8 3.7-5.5 2.5-10.4 5.8-14.6 10s-7.5 9.1-9.9 14.7-3.6 11.6-3.6 18c0 6.3 1.2 12.2 3.6 17.8 2.4 5.6 5.7 10.5 9.9 14.7 4.2 4.2 9 7.5 14.6 10 5.5 2.5 11.5 3.7 17.8 3.7 6.2 0 12-1.2 17.6-3.7 4.9-2.2 9.3-5 13.1-8.6v22.6c0 10.9-8.4 20.3-19.3 20.9h-1.2c-11.4 0-20.7-8.5-20.7-19v-.4c.1-2.6-2-4.7-4.5-4.7h-7.2c-1.5 0-2.7 1.2-2.8 2.6-1.4 20.6 14.9 37.8 35.2 37.8 15.4 0 24.3-7.5 29.3-15.2 4-6.2 6-13.6 6-21V43.5c0-1.5-1.2-2.7-2.7-2.7zM418.6 109c-17.2 0-31.1-13.9-31.1-31.1s13.9-31.1 31.1-31.1 31.1 13.9 31.1 31.1-13.9 31.1-31.1 31.1zM561.9 40.8h-8.6c-1.5 0-2.8 1-3.3 2.4-3.8-3.6-8.3-6.6-13.3-8.8-5.5-2.5-11.4-3.7-17.6-3.7-6.3 0-12.2 1.2-17.8 3.7-5.5 2.5-10.4 5.8-14.6 10s-7.5 9.1-9.9 14.7-3.6 11.6-3.6 18c0 6.3 1.2 12.2 3.6 17.8 2.4 5.6 5.7 10.5 9.9 14.7 4.2 4.2 9 7.5 14.6 10 5.5 2.5 11.5 3.7 17.8 3.7 6.2 0 12-1.2 17.6-3.7 4.9-2.2 9.3-5 13.1-8.6v22.6c0 10.9-8.4 20.3-19.3 20.9h-1.2c-11.4 0-20.7-8.5-20.7-19v-.4c.1-2.6-2-4.7-4.5-4.7h-7.2c-1.5 0-2.7 1.2-2.8 2.6-1.4 20.6 14.9 37.8 35.2 37.8 15.4 0 24.3-7.5 29.3-15.2 4-6.2 6-13.6 6-21V43.5c0-1.5-1.2-2.7-2.7-2.7zM519 109c-17.2 0-31.1-13.9-31.1-31.1s13.9-31.1 31.1-31.1 31.1 13.9 31.1 31.1S536.2 109 519 109z"/><g><path class="st0" d="M176.7 227.5l3.3-4c.3-.3.8-.4 1.2-.1 3.2 2.6 6.8 4.1 11.1 4.1 3.8 0 5.8-1.8 5.8-4 0-2.5-2.1-3.3-7.5-4.6-7.5-1.7-12.8-3.8-12.8-10.7 0-6.6 5.4-11.1 13.1-11.1 5.5 0 9.8 1.6 13.3 4.4.3.3.4.8.1 1.1l-3 4.2c-.3.4-.8.4-1.2.2-3-2.2-6.3-3.4-9.5-3.4-3.3 0-5.2 1.7-5.2 3.8 0 2.6 2.1 3.4 7.6 4.7 7.7 1.7 12.7 4 12.7 10.5 0 6.8-5.1 11.3-13.8 11.3-5.9 0-11.1-1.9-15.2-5.4-.2-.2-.3-.7 0-1zM247.7 218.3v14.2c0 .5-.4.8-.8.8h-5.6c-.5 0-.8-.4-.8-.8 0-.7-.8-1.1-1.3-.7-1.8 1.4-4.2 2.1-6.5 2.1-5.7 0-10.1-3.4-10.1-8.5 0-5.3 4.9-8.9 11.1-8.9 2.2 0 4.6.5 6.8 1.3v-.5c0-2.8-1.8-5.3-6.2-5.3-2.2 0-4.3.6-6.2 1.6-.4.2-.9 0-1.1-.4l-1.8-3.5c-.2-.4 0-.9.4-1.1 3.2-1.5 6.3-2.4 9.5-2.6 6.9-.4 12.6 5.3 12.6 12.3zm-7.3 6.4v-1.8c0-.4-.2-.7-.6-.8-1.6-.5-3.3-.8-5.2-.8-2.7 0-4.9 1.6-4.9 3.8s1.9 3.5 4.5 3.5c2.9 0 5.6-1.3 6.1-3.7.1 0 .1-.1.1-.2zM267.8 197.8h5.9c.5 0 .8.4.8.8v34.5c0 .5-.4.8-.8.8h-5.9c-.5 0-.8-.4-.8-.8v-34.5c0-.4.3-.8.8-.8zM317.7 218.3v14.2c0 .5-.4.8-.8.8h-5.6c-.5 0-.8-.4-.8-.8 0-.7-.8-1.1-1.3-.7-1.8 1.4-4.2 2.1-6.5 2.1-5.7 0-10.1-3.4-10.1-8.5 0-5.3 4.9-8.9 11.1-8.9 2.2 0 4.6.5 6.8 1.3v-.5c0-2.8-1.8-5.3-6.2-5.3-2.2 0-4.3.6-6.2 1.6-.4.2-.9 0-1.1-.4l-1.8-3.5c-.2-.4 0-.9.4-1.1 3.2-1.5 6.3-2.4 9.5-2.6 6.9-.4 12.6 5.3 12.6 12.3zm-7.3 6.4v-1.8c0-.4-.2-.7-.6-.8-1.6-.5-3.3-.8-5.2-.8-2.7 0-4.9 1.6-4.9 3.8s1.9 3.5 4.5 3.5c2.9 0 5.6-1.3 6.1-3.7.1 0 .1-.1.1-.2zM391.8 197.9v34.5c0 .5-.4.8-.8.8h-5.9c-.5 0-.8-.4-.8-.8v-.8c0-.7-.9-1.1-1.4-.6-2 1.9-4.6 2.9-7.6 2.9-7.1 0-12.3-5.8-12.3-14s5.2-14 12.3-14c3 0 5.6 1.1 7.6 2.9.5.5 1.4.1 1.4-.6v-10.3c0-.5.4-.8.8-.8h5.9c.5 0 .8.4.8.8zm-7.5 22c0-4.4-2.8-7.6-6.8-7.6-4.2 0-7.1 3.2-7.1 7.6 0 4.5 2.9 7.7 7.1 7.7 3.9-.1 6.8-3.2 6.8-7.7zM430.7 225.4l3.7 3.8c.3.3.3.9-.1 1.2-2.5 2.1-6.7 3.5-10.3 3.5-8 0-14.2-5.8-14.2-14.1 0-8.1 5.9-13.9 13.8-13.9 8.1 0 13 6 13.3 15.6 0 .5-.4.8-.8.8h-17.2c-.6 0-1 .6-.8 1.2 1.1 2.2 3.2 3.7 5.9 3.7 1.9 0 4.1-.8 5.6-1.9.3-.2.8-.2 1.1.1zm-11.6-8.5h9.4c.6 0 1-.6.8-1.2-.9-2-2.7-3.2-5.3-3.2-2.4 0-4.4 1.1-5.6 3.1-.4.6 0 1.3.7 1.3zM490.2 206.3v5.4c0 .5.4.8.8.8h16.2c.5 0 .8.4.8.8v5.2c0 .5-.4.8-.8.8H491c-.5 0-.8.4-.8.8v6.2c0 .5.4.8.8.8h18.1c.5 0 .8.4.8.8v5.2c0 .5-.4.8-.8.8h-25.7c-.5 0-.8-.4-.8-.8v-33.6c0-.5.4-.8.8-.8h25.7c.5 0 .8.4.8.8v5.2c0 .5-.4.8-.8.8H491c-.4 0-.8.4-.8.8zM526.8 229.3l2.4-3.9c.2-.4.8-.5 1.2-.2 2.3 1.5 5 2.5 8.2 2.5 2 0 3.5-.8 3.5-2 0-1.7-2-2.2-4.7-2.9-5.5-1.3-9.7-2.8-9.8-8.1-.1-5.1 4.1-8.7 10.4-8.7 3.5 0 7 1.2 9.9 2.9.4.2.5.7.3 1.1l-2.3 4c-.2.4-.7.5-1.1.3-2.3-1.2-4.7-2-6.8-2-1.9 0-3.2.7-3.2 1.6 0 1.4 1.1 1.9 4.7 2.8 4.6 1.2 9.7 2.7 9.7 8.6 0 5.3-4.3 8.6-10.9 8.6-4 0-8.3-1.3-11.4-3.6-.3-.1-.3-.6-.1-1zM583 231c.1.3 0 .7-.2.9-1.5 1.2-3.7 2-5.7 2-4.7 0-8-3.4-8-8.2v-12.3c0-.5-.4-.8-.8-.8h-2c-.5 0-.8-.4-.8-.8v-4.5c0-.5.4-.8.8-.8h2c.5 0 .8-.4.8-.8V200c0-.5.4-.8.8-.8h5.6c.5 0 .8.4.8.8v5.7c0 .5.4.8.8.8h4.1c.5 0 .8.4.8.8v4.5c0 .5-.4.8-.8.8h-4.1c-.5 0-.8.4-.8.8v11.1c0 1.8 1.1 3 2.5 3 .7 0 1.3-.1 1.8-.4.4-.2.9 0 1.1.5l1.3 3.4zM626.1 207.3v25.1c0 .5-.4.8-.8.8h-5.9c-.5 0-.8-.4-.8-.8v-.3c0-.7-.8-1.1-1.4-.6-1.7 1.5-4 2.4-6.7 2.4-5.8 0-9.9-4.3-9.9-10.3v-16.2c0-.5.4-.8.8-.8h5.6c.5 0 .8.4.8.8V222c0 3.3 2.1 5.6 5.1 5.6 3.2 0 5.6-2.3 5.6-5.2l.1.2v-15.2c0-.5.4-.8.8-.8h5.9c.4-.2.8.2.8.7zM673 197.9v34.5c0 .5-.4.8-.8.8h-5.9c-.5 0-.8-.4-.8-.8v-.8c0-.7-.9-1.1-1.4-.6-2 1.9-4.6 2.9-7.6 2.9-7.1 0-12.3-5.8-12.3-14s5.2-14 12.3-14c3 0 5.6 1.1 7.6 2.9.5.5 1.4.1 1.4-.6v-10.3c0-.5.4-.8.8-.8h5.9c.4 0 .8.4.8.8zm-7.6 22c0-4.4-2.8-7.6-6.8-7.6-4.2 0-7.1 3.2-7.1 7.6 0 4.5 2.9 7.7 7.1 7.7 4-.1 6.8-3.2 6.8-7.7zM691 219.9c0-7.6 6.7-14 14.6-14 7.9 0 14.5 6.4 14.5 14s-6.6 14-14.5 14-14.6-6.4-14.6-14zm22 0c0-4.1-3.4-7.6-7.3-7.6-4 0-7.4 3.5-7.4 7.6s3.4 7.7 7.4 7.7c3.9-.1 7.3-3.6 7.3-7.7zM736.6 229.3l2.4-3.9c.2-.4.8-.5 1.2-.2 2.3 1.5 5 2.5 8.2 2.5 2 0 3.5-.8 3.5-2 0-1.7-2-2.2-4.7-2.9-5.5-1.3-9.7-2.8-9.8-8.1-.1-5.1 4.1-8.7 10.4-8.7 3.5 0 7 1.2 9.9 2.9.4.2.5.7.3 1.1l-2.3 4c-.2.4-.7.5-1.1.3-2.3-1.2-4.7-2-6.8-2-1.9 0-3.2.7-3.2 1.6 0 1.4 1.1 1.9 4.7 2.8 4.6 1.2 9.7 2.7 9.7 8.6 0 5.3-4.3 8.6-10.9 8.6-4 0-8.3-1.3-11.4-3.6-.2-.1-.3-.6-.1-1z"/></g><g><linearGradient id="SVGID_1_" gradientUnits="userSpaceOnUse" x1="25.831" y1="73.865" x2="109.55" y2="73.865"><stop offset="0" stop-color="#435f92"/><stop offset="1" stop-color="#485f90"/></linearGradient><path class="st1" d="M105.9 56.7c-.4-1-.9-1.9-1.4-2.8-.5-.9-1.3-2.1-2.1-3.3-1.7-2.4-5.2-2.8-7.4-.8L81.9 62.2c-2.7 2.6-2.8 6.9-.1 9.5 2.2 2.2 5.8 2 7.8-.4 1.7-1.9 4.9-.8 4.9 1.7.2 12.1-7.9 23.6-21.1 26.6-10.2 2.3-21-1.7-27.2-10.2C35.9 75.1 41.6 55.8 56.9 49c2.7-1.2 5.5-1.9 8.4-2.2 3.3-.3 6.3-3.2 6.4-6.5.1-5-4.3-8.7-9.1-8.1-5 .6-9.9 2.1-14.7 4.7C29.7 46.6 21.2 68.6 28.3 88c8.4 23 34.4 33.8 56.4 24 21.1-9.4 30.6-34.2 21.2-55.3z"/><linearGradient id="SVGID_2_" gradientUnits="userSpaceOnUse" x1="46.456" y1="72.27" x2="81.411" y2="72.27"><stop offset="0" stop-color="#408ba6"/><stop offset=".249" stop-color="#4690a8"/><stop offset=".578" stop-color="#579dae"/><stop offset=".951" stop-color="#72b4b8"/><stop offset="1" stop-color="#76b7b9"/></linearGradient><path class="st2" d="M69.3 79.2c-.8 1.2-.4 2.7.8 3.5 1.2.7.8 2.5-.5 2.7-5.3.9-10.9-1.5-13.7-6.6-3.1-5.6-1.6-12.8 3.4-16.8 4-3.1 9-3.6 13.3-1.8 1.4.6 3 .2 3.9-1l.1-.2c1.5-2 .7-4.9-1.6-5.8-8.2-3.3-18.5-1.3-24.8 7.4-3.4 4.6-4.6 10.6-3.2 16.1 3.7 15.1 20.2 20.5 31.7 12.8l1.2-.9c1.9-1.5 1.9-4.3 0-5.8l-5.7-4.4c-1.5-1.2-3.7-.9-4.9.8z"/><linearGradient id="SVGID_3_" gradientUnits="userSpaceOnUse" x1="2.356" y1="74.668" x2="132.982" y2="74.668"><stop offset="0" stop-color="#473580"/><stop offset=".409" stop-color="#463b81"/><stop offset=".572" stop-color="#453f82"/><stop offset="1" stop-color="#444e8a"/></linearGradient><path class="st3" d="M108.9 50.6c3.7 6.4 6 13.9 6.4 21.8 1.1 25.6-19.5 48.4-45 49.9-26.9 1.6-50-19.4-50.7-46.7-.6-24.5 17.8-45.8 42.2-48.7 2-.2 4-.3 6-.3 5 0 8.9-4.2 8.6-9.1-.3-4.6-4.1-8.1-8.7-8.1-1.4 0-2.9 0-4.3.1-36.3 2.4-63.7 34-60.8 70.4 2.9 35.7 34.4 62.6 70 59.9 35.7-2.7 62.6-33.6 60.2-69.4-.7-10.2-3.7-19.7-8.4-28.1-2.5-4.4-8.3-5.8-12.6-3.1-3.9 2.4-5.1 7.4-2.9 11.4z"/></g></symbol><symbol id="phone" viewBox="0 0 25.034 25.035"><g id="smartphone" transform="translate(-.001)"><path id="Path_103" data-name="Path 103" class="cls-1" d="M25.348 0h-10.51A1.841 1.841 0 0 0 13 1.838V23.2a1.841 1.841 0 0 0 1.838 1.838h10.51a1.841 1.841 0 0 0 1.838-1.838V1.838A1.841 1.841 0 0 0 25.348 0zM13.834 3.338h12.518v15.855H13.834zm1-2.5h10.51a1 1 0 0 1 1 1V2.5h-12.51v-.662A1 1 0 0 1 14.838.834zM25.348 24.2h-10.51a1 1 0 0 1-1-1v-3.172h12.514V23.2a1 1 0 0 1-1.004 1z" transform="translate(-7.575)"/><path id="Path_104" data-name="Path 104" class="cls-1" d="M27.669 49a1.669 1.669 0 1 0 1.669 1.669A1.671 1.671 0 0 0 27.669 49zm0 2.5a.834.834 0 1 1 .834-.834.835.835 0 0 1-.834.834z" transform="translate(-15.151 -28.555)"/><path id="Path_105" data-name="Path 105" class="cls-1" d="M25.417 3.834h1.669a.417.417 0 0 0 0-.834h-1.669a.417.417 0 0 0 0 .834z" transform="translate(-14.568 -1.748)"/><path id="Path_106" data-name="Path 106" class="cls-1" d="M32.417 3.834h.417a.417.417 0 0 0 0-.834h-.417a.417.417 0 0 0 0 .834z" transform="translate(-18.648 -1.748)"/><path id="Path_107" data-name="Path 107" class="cls-1" d="M55.617 4.4a.417.417 0 0 0-.59.59 4 4 0 0 1 0 5.654.417.417 0 1 0 .59.59 4.838 4.838 0 0 0 0-6.834z" transform="translate(-31.995 -2.492)"/><path id="Path_108" data-name="Path 108" class="cls-1" d="M51.406 6.674a.417.417 0 0 0-.59.59 2.74 2.74 0 0 1 0 3.871.417.417 0 1 0 .59.59 3.574 3.574 0 0 0 0-5.051z" transform="translate(-29.541 -3.818)"/><path id="Path_109" data-name="Path 109" class="cls-1" d="M2 4.988a.417.417 0 0 0-.59-.59 4.838 4.838 0 0 0 0 6.834.417.417 0 0 0 .59-.59 4 4 0 0 1 0-5.654z" transform="translate(0 -2.492)"/><path id="Path_110" data-name="Path 110" class="cls-1" d="M6.73 6.4a.417.417 0 0 0-.59 0 3.574 3.574 0 0 0 0 5.051.417.417 0 0 0 .59-.59 2.74 2.74 0 0 1 0-3.871.418.418 0 0 0 0-.59z" transform="translate(-2.969 -3.657)"/></g></symbol><symbol id="plug" viewBox="0 0 80.206 104.566"><g id="plug" transform="translate(-57.699)"><path id="Path_31" data-name="Path 31" class="cls-1" d="M63.241 390.7a6.3 6.3 0 0 1-.772-.882l-.551.551a14.847 14.847 0 0 0 0 20.734 3.363 3.363 0 0 0 2.316.993 3.173 3.173 0 0 0 2.316-.993 3.3 3.3 0 0 0 .11-4.632 8.258 8.258 0 0 1 0-11.47l.551-.551a5.539 5.539 0 0 1-.882-.772z" transform="translate(0 -307.526)"/><path id="Path_32" data-name="Path 32" class="cls-2" d="M154.247 203.7l-9.264 9.154-9.816-9.816 9.154-9.264a3.275 3.275 0 0 0-4.632-4.632l-9.154 9.154-2.1-2.206-2.978-2.868a3.276 3.276 0 1 0-4.522 4.742l.551.551 2.316 2.316 4.411 4.522 14.453 14.447 4.411 4.3 2.316 2.426.551.551a3.421 3.421 0 0 0 2.426.993 3.792 3.792 0 0 0 2.316-.882 3.3 3.3 0 0 0 .11-4.632l-2.978-3.088-2.1-2.1 9.154-9.154a3.2 3.2 0 0 0 0-4.632 3.3 3.3 0 0 0-4.625.118z" transform="translate(-49.096 -148.431)"/><path id="Path_33" data-name="Path 33" class="cls-3" d="M394.355 21.41a6.3 6.3 0 0 1 .772.882l.551-.551a14.848 14.848 0 0 0 0-20.734 3.276 3.276 0 1 0-4.742 4.521 8.258 8.258 0 0 1 0 11.47l-.551.551a5.534 5.534 0 0 1 .882.772z" transform="translate(-262.185)"/><path id="Path_34" data-name="Path 34" class="cls-1" d="M99.321 260.867l-4.411-4.3-14.448-14.559-4.411-4.522-2.426-2.316-9.044 9.043a17.632 17.632 0 0 0-.772 24.153 5.536 5.536 0 0 0 .772.882l3.088 3.088a6.3 6.3 0 0 0 .882.772 17.31 17.31 0 0 0 11.691 4.411 17.519 17.519 0 0 0 12.458-5.182l9.044-9.044z" transform="translate(-1.339 -185.526)"/><path id="Path_35" data-name="Path 35" class="cls-4" d="M274.2 67.9l-3.088-3.088a6.3 6.3 0 0 0-.882-.772 17.31 17.31 0 0 0-11.69-4.411 17.52 17.52 0 0 0-12.462 5.183l-9.044 9.044 2.316 2.426 23.375 23.378 2.426 2.316 9.044-9.044a17.632 17.632 0 0 0 .772-24.153 2.977 2.977 0 0 0-.767-.879z" transform="translate(-141.473 -47.039)"/><path id="Path_36" data-name="Path 36" class="cls-5" d="M218.823 121.536l-2.423-2.426-.441-.551a3.276 3.276 0 0 0-4.742 4.522l2.868 2.978 23.381 23.381 2.978 2.868a3.068 3.068 0 0 0 2.316.882 3.421 3.421 0 0 0 2.426-.993 3.3 3.3 0 0 0-.11-4.632l-.551-.331-2.426-2.316z" transform="translate(-120.4 -92.737)"/></g></symbol><symbol id="reading" viewBox="0 0 97.69 104.69"><g id="icon_reading" data-name="icon reading" transform="translate(-592 -2681)"><ellipse id="Ellipse_44" data-name="Ellipse 44" class="cls-1" cx="19.122" cy="19.746" rx="19.122" ry="19.746" transform="translate(621.723 2681)"/><path id="Path_19" data-name="Path 19" class="cls-2" d="M59.151 243.688L12.8 234.543v-53.21l46.351 9.146z" transform="translate(581.694 2542.001)"/><g id="Group_62" data-name="Group 62" transform="translate(0 7)"><path id="Union_1" data-name="Union 1" class="cls-1" d="M-235-78.427l.641-.128-.018-.08 14.757-3.326a1.914 1.914 0 0 1 2.286 1.455 1.914 1.914 0 0 1-1.454 2.286l-10.251 2.31.318 1.479 12.221-2.749a2.023 2.023 0 0 1 2.286 1.454 1.915 1.915 0 0 1-1.454 2.287l-12.245 2.755.349 1.623 11.065-2.508a1.914 1.914 0 0 1 2.286 1.455 1.914 1.914 0 0 1-1.454 2.286l-11.09 2.514.343 1.6 8.668-2.032a1.776 1.776 0 0 1 2.287 1.455 1.915 1.915 0 0 1-1.455 2.286l-13.3 3.118-.049-.22-4.737 1.05z" transform="translate(827 2820.327)"/><path id="Union_2" data-name="Union 2" class="cls-1" d="M-218.884-59.1v.012l-2.942-.666-1.7-.378v-.007l-8.724-1.976a1.859 1.859 0 0 1-1.462-2.219 1.785 1.785 0 0 1 2.3-1.413l8.673 1.964.328-1.526-11.09-2.514a1.914 1.914 0 0 1-1.455-2.286 1.915 1.915 0 0 1 2.287-1.455l11.064 2.508.349-1.623-12.245-2.755a1.915 1.915 0 0 1-1.455-2.287 2.024 2.024 0 0 1 2.287-1.454l12.219 2.749.318-1.479-10.251-2.31a1.913 1.913 0 0 1-1.454-2.286 1.914 1.914 0 0 1 2.286-1.455l14.757 3.326-.018.08.641.128v20.37z" transform="translate(903.865 2820.327)"/></g><path id="Path_20" data-name="Path 20" class="cls-3" d="M250.667 243.688l46.351-9.145v-53.21l-46.351 9.146z" transform="translate(390.178 2542.001)"/></g></symbol><symbol id="secondleft" viewBox="0 0 334 524"><g id="forma_1" data-name="forma 1" class="cls-2" transform="translate(0 -2463)"><path id="Path_78" data-name="Path 78" class="cls-3" d="M595.589 242.636a21.229 21.229 0 0 0-30.117 0L520.406 287.7a21.23 21.23 0 0 1-30.117 0 21.23 21.23 0 0 1 0-30.117l88.811-88.811a21.3 21.3 0 0 0-30.117-30.117l-43.307 43.307a21.3 21.3 0 0 1-30.117-30.117l9.673-9.673 105.74-105.74a21.3 21.3 0 1 0-30.117-30.117L454.9 112.055l-62.653 62.653a21.229 21.229 0 0 1-30.117 0 21.229 21.229 0 0 1 0-30.117l62.652-62.653a21.3 21.3 0 0 0-30.117-30.117L291.779 154.7a21.3 21.3 0 0 1-30.117-30.117L279.249 107a21.3 21.3 0 0 0-30.117-30.117L47.764 278.249a21.3 21.3 0 0 0 30.117 30.117l29.238-29.238a21.3 21.3 0 0 1 30.117 30.117L6.215 439.827a21.3 21.3 0 0 0 30.117 30.117l74.968-74.963a21.229 21.229 0 0 1 30.117 0 21.23 21.23 0 0 1 0 30.117L66.45 500.062l-48.364 48.363a21.229 21.229 0 0 0 0 30.117 21.229 21.229 0 0 0 30.117 0l48.363-48.363 95.847-95.847a21.3 21.3 0 1 1 30.117 30.117l-17.587 17.587a21.3 21.3 0 0 0 30.117 30.117l23.083-23.082 29.238-29.238a21.361 21.361 0 0 1 25.94-3.3l1.1.879 3.3 2.638a21.365 21.365 0 0 1-.22 29.9l-52.54 52.54-39.13 39.35a21.3 21.3 0 0 0 30.117 30.117l39.13-39.35 98.485-98.486 29.458-29.458 73.425-73.424 98.485-98.485a20.676 20.676 0 0 0 .658-30.118z" transform="scale(-1) rotate(13 13590.49 -2510.391)"/><path id="Path_82" data-name="Path 82" class="cls-4" d="M23 0A23 23 0 1 1 0 23 23 23 0 0 1 23 0z" transform="translate(150 2524)"/><path id="Path_81" data-name="Path 81" class="cls-5" d="M18.5 0h39a18.5 18.5 0 0 1 0 37h-39a18.5 18.5 0 0 1 0-37z" transform="rotate(-30 5324.703 949.52)"/></g></symbol><symbol id="secondright" viewBox="0 0 302 484"><g id="forma_2" data-name="forma 2" class="cls-2" transform="translate(-1618 -2420)"><path id="Path_79" data-name="Path 79" class="cls-3" d="M595.589 242.636a21.229 21.229 0 0 0-30.117 0L520.406 287.7a21.23 21.23 0 0 1-30.117 0 21.23 21.23 0 0 1 0-30.117l88.811-88.811a21.3 21.3 0 0 0-30.117-30.117l-43.307 43.307a21.3 21.3 0 0 1-30.117-30.117l9.673-9.673 105.74-105.74a21.3 21.3 0 1 0-30.117-30.117L454.9 112.055l-62.653 62.653a21.229 21.229 0 0 1-30.117 0 21.229 21.229 0 0 1 0-30.117l62.652-62.653a21.3 21.3 0 0 0-30.117-30.117L291.779 154.7a21.3 21.3 0 0 1-30.117-30.117L279.249 107a21.3 21.3 0 0 0-30.117-30.117L47.764 278.249a21.3 21.3 0 0 0 30.117 30.117l29.238-29.238a21.3 21.3 0 0 1 30.117 30.117L6.215 439.827a21.3 21.3 0 0 0 30.117 30.117l74.968-74.963a21.229 21.229 0 0 1 30.117 0 21.23 21.23 0 0 1 0 30.117L66.45 500.062l-48.364 48.363a21.229 21.229 0 0 0 0 30.117 21.229 21.229 0 0 0 30.117 0l48.363-48.363 95.847-95.847a21.3 21.3 0 1 1 30.117 30.117l-17.587 17.587a21.3 21.3 0 0 0 30.117 30.117l23.083-23.082 29.238-29.238a21.361 21.361 0 0 1 25.94-3.3l1.1.879 3.3 2.638a21.365 21.365 0 0 1-.22 29.9l-52.54 52.54-39.13 39.35a21.3 21.3 0 0 0 30.117 30.117l39.13-39.35 98.485-98.486 29.458-29.458 73.425-73.424 98.485-98.485a20.676 20.676 0 0 0 .658-30.118z" transform="rotate(17 -6601.843 7054.106)"/><circle id="Ellipse_88" data-name="Ellipse 88" class="cls-4" cx="23" cy="23" r="23" transform="scale(-1) rotate(4.01 39620.674 -27077.712)"/><rect id="Rectangle_145" data-name="Rectangle 145" class="cls-5" width="76" height="37" rx="18.5" transform="rotate(154.03 567.966 1483.68)"/></g></symbol><symbol id="tea" viewBox="0 0 86.888 85.938"><g id="tea" transform="translate(0 -2.801)"><path id="Path_37" data-name="Path 37" class="cls-1" d="M365.478 149.023a19.851 19.851 0 1 1-.389 38.489l.36-7.743a12.262 12.262 0 1 0 .029-22.916z" transform="translate(-303.132 -120.945)"/><path id="Path_38" data-name="Path 38" class="cls-2" d="M390.023 190.166a19.872 19.872 0 0 1-24.931 19.2l.107-2.3a19.865 19.865 0 0 0 21.987-19.737 19.755 19.755 0 0 0-4.473-12.549 19.805 19.805 0 0 1 7.31 15.386z" transform="translate(-303.135 -142.794)"/><path id="Path_39" data-name="Path 39" class="cls-3" d="M61.456 468.848H1.833A1.833 1.833 0 0 1 0 467.015v-4.581a1.833 1.833 0 0 1 1.833-1.834h59.623a1.833 1.833 0 0 1 1.833 1.833v4.581a1.833 1.833 0 0 1-1.833 1.834z" transform="translate(0 -380.11)"/><path id="Path_40" data-name="Path 40" class="cls-4" d="M351.192 462.437v4.582a1.833 1.833 0 0 1-1.832 1.832h-2.613V460.6h2.613a1.833 1.833 0 0 1 1.832 1.837z" transform="translate(-287.903 -380.113)"/><path id="Path_41" data-name="Path 41" class="cls-5" d="M53.3 166.5H19.584a13.807 13.807 0 0 1-13.807-13.809v-45.429a.875.875 0 0 1 .875-.875h59.579a.875.875 0 0 1 .875.875v45.429A13.807 13.807 0 0 1 53.3 166.5z" transform="translate(-4.797 -86.007)"/><path id="Path_42" data-name="Path 42" class="cls-6" d="M275.617 106.39a.875.875 0 0 1 .875.875v45.429a13.808 13.808 0 0 1-13.808 13.806h-4.725a13.808 13.808 0 0 0 13.808-13.808v-46.3z" transform="translate(-214.182 -86.01)"/><g id="Group_63" data-name="Group 63" transform="translate(8.614 2.801)"><path id="Path_43" data-name="Path 43" class="cls-7" d="M52.071 60.785a1.312 1.312 0 0 0 1.312-1.312v-2.644a1.312 1.312 0 1 0-2.625 0v2.643a1.312 1.312 0 0 0 1.313 1.313z" transform="translate(-50.759 -46.571)"/><path id="Path_44" data-name="Path 44" class="cls-7" d="M115.572 39.366a1.312 1.312 0 0 0 1.312-1.312v-7.022a1.312 1.312 0 0 0-2.625 0v7.021a1.312 1.312 0 0 0 1.313 1.313z" transform="translate(-103.484 -25.152)"/><path id="Path_45" data-name="Path 45" class="cls-7" d="M83.145 17.015a1.312 1.312 0 0 0 1.313-1.315V4.113a1.312 1.312 0 1 0-2.625 0V15.7a1.312 1.312 0 0 0 1.312 1.315z" transform="translate(-76.56 -2.801)"/><path id="Path_46" data-name="Path 46" class="cls-7" d="M146.722 17.015a1.312 1.312 0 0 0 1.312-1.312V4.113a1.312 1.312 0 1 0-2.625 0V15.7a1.312 1.312 0 0 0 1.313 1.315z" transform="translate(-129.347 -2.801)"/><path id="Path_47" data-name="Path 47" class="cls-7" d="M214.515 69.884v20.043a1.312 1.312 0 0 1-2.625 0V69.884a3.062 3.062 0 0 0-6.125 0v1.474h-2.625v-1.474a5.688 5.688 0 1 1 11.375 0z" transform="translate(-177.28 -53.777)"/></g><path id="Path_48" data-name="Path 48" class="cls-3" d="M219.367 203.429l-8.287 4.441a.875.875 0 0 0-.462.771v13.839a.875.875 0 0 0 .875.875h15.748a.875.875 0 0 0 .875-.875v-13.839a.875.875 0 0 0-.462-.771z" transform="translate(-174.875 -166.581)"/><path id="Path_49" data-name="Path 49" class="cls-8" d="M258.673 208.641v13.837a.875.875 0 0 1-.875.875h-1.7v-13.382a.915.915 0 0 0-.483-.807l-8.2-4.394 2.5-1.342 8.286 4.441a.873.873 0 0 1 .472.772z" transform="translate(-205.432 -166.58)"/></g></symbol><symbol id="whats" viewBox="0 0 90 90"><path d="M90 43.841c0 24.213-19.779 43.841-44.182 43.841a44.256 44.256 0 0 1-21.357-5.455L0 90l7.975-23.522a43.38 43.38 0 0 1-6.34-22.637C1.635 19.628 21.416 0 45.818 0 70.223 0 90 19.628 90 43.841zM45.818 6.982c-20.484 0-37.146 16.535-37.146 36.859 0 8.065 2.629 15.534 7.076 21.61L11.107 79.14l14.275-4.537A37.122 37.122 0 0 0 45.819 80.7c20.481 0 37.146-16.533 37.146-36.857S66.301 6.982 45.818 6.982zm22.311 46.956c-.273-.447-.994-.717-2.076-1.254-1.084-.537-6.41-3.138-7.4-3.495-.993-.358-1.717-.538-2.438.537-.721 1.076-2.797 3.495-3.43 4.212-.632.719-1.263.809-2.347.271-1.082-.537-4.571-1.673-8.708-5.333-3.219-2.848-5.393-6.364-6.025-7.441-.631-1.075-.066-1.656.475-2.191.488-.482 1.084-1.255 1.625-1.882.543-.628.723-1.075 1.082-1.793.363-.717.182-1.344-.09-1.883-.27-.537-2.438-5.825-3.34-7.977-.902-2.15-1.803-1.792-2.436-1.792-.631 0-1.354-.09-2.076-.09s-1.896.269-2.889 1.344c-.992 1.076-3.789 3.676-3.789 8.963 0 5.288 3.879 10.397 4.422 11.113.541.716 7.49 11.92 18.5 16.223C58.2 65.771 58.2 64.336 60.186 64.156c1.984-.179 6.406-2.599 7.312-5.107.9-2.512.9-4.663.631-5.111z" fill="#FFF"/></symbol></svg>