<svg xmlns="http://www.w3.org/2000/svg" viewBox="0 0 86.888 85.938"><defs><style>.cls-1{fill:#8a79b3}.cls-2{fill:#4b3283}.cls-3{fill:#01cec7}.cls-4{fill:#18a7a2}.cls-5{fill:url(#linear-gradient)}.cls-6{fill:#ad9fce;opacity:.65}.cls-7{fill:#4e4e4e}.cls-8{fill:#219f9b}</style><linearGradient id="linear-gradient" x1=".5" x2=".5" y2="1" gradientUnits="objectBoundingBox"><stop offset="0" stop-color="#49317d"/><stop offset="1" stop-color="#6052c5"/></linearGradient></defs><g id="tea" transform="translate(0 -2.801)"><path id="Path_37" data-name="Path 37" class="cls-1" d="M365.478 149.023a19.851 19.851 0 1 1-.389 38.489l.36-7.743a12.262 12.262 0 1 0 .029-22.916z" transform="translate(-303.132 -120.945)"/><path id="Path_38" data-name="Path 38" class="cls-2" d="M390.023 190.166a19.872 19.872 0 0 1-24.931 19.2l.107-2.3a19.865 19.865 0 0 0 21.987-19.737 19.755 19.755 0 0 0-4.473-12.549 19.805 19.805 0 0 1 7.31 15.386z" transform="translate(-303.135 -142.794)"/><path id="Path_39" data-name="Path 39" class="cls-3" d="M61.456 468.848H1.833A1.833 1.833 0 0 1 0 467.015v-4.581a1.833 1.833 0 0 1 1.833-1.834h59.623a1.833 1.833 0 0 1 1.833 1.833v4.581a1.833 1.833 0 0 1-1.833 1.834z" transform="translate(0 -380.11)"/><path id="Path_40" data-name="Path 40" class="cls-4" d="M351.192 462.437v4.582a1.833 1.833 0 0 1-1.832 1.832h-2.613V460.6h2.613a1.833 1.833 0 0 1 1.832 1.837z" transform="translate(-287.903 -380.113)"/><path id="Path_41" data-name="Path 41" class="cls-5" d="M53.3 166.5H19.584a13.807 13.807 0 0 1-13.807-13.809v-45.429a.875.875 0 0 1 .875-.875h59.579a.875.875 0 0 1 .875.875v45.429A13.807 13.807 0 0 1 53.3 166.5z" transform="translate(-4.797 -86.007)"/><path id="Path_42" data-name="Path 42" class="cls-6" d="M275.617 106.39a.875.875 0 0 1 .875.875v45.429a13.808 13.808 0 0 1-13.808 13.806h-4.725a13.808 13.808 0 0 0 13.808-13.808v-46.3z" transform="translate(-214.182 -86.01)"/><g id="Group_63" data-name="Group 63" transform="translate(8.614 2.801)"><path id="Path_43" data-name="Path 43" class="cls-7" d="M52.071 60.785a1.312 1.312 0 0 0 1.312-1.312v-2.644a1.312 1.312 0 1 0-2.625 0v2.643a1.312 1.312 0 0 0 1.313 1.313z" transform="translate(-50.759 -46.571)"/><path id="Path_44" data-name="Path 44" class="cls-7" d="M115.572 39.366a1.312 1.312 0 0 0 1.312-1.312v-7.022a1.312 1.312 0 0 0-2.625 0v7.021a1.312 1.312 0 0 0 1.313 1.313z" transform="translate(-103.484 -25.152)"/><path id="Path_45" data-name="Path 45" class="cls-7" d="M83.145 17.015a1.312 1.312 0 0 0 1.313-1.315V4.113a1.312 1.312 0 1 0-2.625 0V15.7a1.312 1.312 0 0 0 1.312 1.315z" transform="translate(-76.56 -2.801)"/><path id="Path_46" data-name="Path 46" class="cls-7" d="M146.722 17.015a1.312 1.312 0 0 0 1.312-1.312V4.113a1.312 1.312 0 1 0-2.625 0V15.7a1.312 1.312 0 0 0 1.313 1.315z" transform="translate(-129.347 -2.801)"/><path id="Path_47" data-name="Path 47" class="cls-7" d="M214.515 69.884v20.043a1.312 1.312 0 0 1-2.625 0V69.884a3.062 3.062 0 0 0-6.125 0v1.474h-2.625v-1.474a5.688 5.688 0 1 1 11.375 0z" transform="translate(-177.28 -53.777)"/></g><path id="Path_48" data-name="Path 48" class="cls-3" d="M219.367 203.429l-8.287 4.441a.875.875 0 0 0-.462.771v13.839a.875.875 0 0 0 .875.875h15.748a.875.875 0 0 0 .875-.875v-13.839a.875.875 0 0 0-.462-.771z" transform="translate(-174.875 -166.581)"/><path id="Path_49" data-name="Path 49" class="cls-8" d="M258.673 208.641v13.837a.875.875 0 0 1-.875.875h-1.7v-13.382a.915.915 0 0 0-.483-.807l-8.2-4.394 2.5-1.342 8.286 4.441a.873.873 0 0 1 .472.772z" transform="translate(-205.432 -166.58)"/></g></svg>